<svg width="140" height="21" viewBox="0 0 140 21" fill="none" xmlns="http://www.w3.org/2000/svg">
<path fill-rule="evenodd" clip-rule="evenodd" d="M116.396 13.9777H111.154C110.591 15.5611 108.674 16.6444 105.715 16.6444C102.052 16.6444 99.234 14.6444 99.234 11.0055C99.234 7.56106 101.742 5.25551 105.715 5.25551C108.421 5.25551 110.196 6.31106 110.844 8.00551H116.086C115.41 3.31106 111.154 0.949951 105.715 0.949951C98.8676 0.949951 94.387 5.03328 94.387 11.0055C94.387 16.7277 98.4167 20.95 105.715 20.95C111.436 20.95 115.804 18.5611 116.396 13.9777ZM72.2305 1.22773V16.5055H84.0944V20.6722H67.6089V1.22773H72.2305ZM86.8799 1.22773H91.6142V20.6722H86.8799V1.22773ZM139.629 20.6722H134.556L128.272 6.22773H127.99L121.734 20.6722H116.633L125.313 1.22773H130.977L139.629 20.6722ZM50.4562 1.22774H45.7595L45.7595 5.19599H58.5015C59.5426 5.19599 60.3865 6.0399 60.3865 7.08091C60.3865 8.12193 59.5426 8.96583 58.5015 8.96583H45.7595L45.7595 12.9341V20.6722H50.4562V12.9341H59.0958C62.3284 12.9341 64.949 10.3135 64.949 7.08092C64.949 3.8483 62.3285 1.22774 59.0958 1.22774H50.4562ZM23.752 1.22774H42.5389V5.196H23.752V1.22774ZM23.752 8.96583H42.5389V12.9341H23.752V8.96583ZM42.5389 16.7039H23.752V20.6722H42.5389V16.7039ZM0 20.6722V12.9341V8.96583H14.0839C15.125 8.96583 15.9689 8.12193 15.9689 7.08091C15.9689 6.0399 15.125 5.19599 14.0839 5.19599H0V1.22774H4.69673H14.6782C17.9108 1.22774 20.5314 3.8483 20.5314 7.08092C20.5314 9.69299 18.8204 11.9054 16.458 12.6586L21.0011 20.6722H16.036L11.6491 12.9341H4.69673V20.6722H0Z" fill="white"/>
</svg>
